<?xml version="1.0" encoding="utf-8"?>
<!-- Generator: Adobe Illustrator 15.0.0, SVG Export Plug-In . SVG Version: 6.00 Build 0)  -->
<!DOCTYPE svg PUBLIC "-//W3C//DTD SVG 1.1//EN" "http://www.w3.org/Graphics/SVG/1.1/DTD/svg11.dtd">
<svg version="1.1" id="Layer_1" xmlns="http://www.w3.org/2000/svg" xmlns:xlink="http://www.w3.org/1999/xlink" x="0px" y="0px"
	 width="127px" height="127px" viewBox="0 0 127 127" enable-background="new 0 0 127 127" xml:space="preserve">
<path fill-rule="evenodd" clip-rule="evenodd" fill="#FFFFFF" d="M0,63.5C0,98.515,28.486,127,63.5,127
	c35.015,0,63.5-28.485,63.5-63.5C127,28.486,98.515,0,63.5,0C28.486,0,0,28.486,0,63.5z M3.045,63.5
	c0-33.335,27.12-60.455,60.455-60.455s60.456,27.12,60.456,60.455S96.835,123.956,63.5,123.956S3.045,96.835,3.045,63.5z"/>
<path fill-rule="evenodd" clip-rule="evenodd" fill="#FFFFFF" d="M94.649,87.79l-9.109-9.109c-0.84-0.84-2.199-0.84-3.037,0
	l-0.245,0.245l-4.284-4.284c-0.105-0.104-0.221-0.191-0.342-0.267c3.567-4.439,5.707-10.075,5.707-16.213
	c0-14.31-11.601-25.909-25.91-25.909c-14.308,0-25.909,11.599-25.909,25.909c0,14.309,11.601,25.908,25.909,25.908
	c6.138,0,11.774-2.139,16.213-5.706c0.075,0.121,0.162,0.236,0.268,0.342l4.283,4.284l-0.245,0.245c-0.84,0.839-0.84,2.198,0,3.037
	l9.109,9.109c0.838,0.839,2.198,0.839,3.037,0l4.555-4.555C95.488,89.988,95.488,88.629,94.649,87.79z M57.429,74.091
	c-8.797,0-15.929-7.132-15.929-15.929c0-8.797,7.132-15.93,15.929-15.93c8.797,0,15.929,7.132,15.929,15.93
	C73.358,66.958,66.227,74.091,57.429,74.091z"/>
</svg>
