<?xml version="1.0" encoding="utf-8"?>
<!-- Generator: Adobe Illustrator 15.0.0, SVG Export Plug-In . SVG Version: 6.00 Build 0)  -->
<!DOCTYPE svg PUBLIC "-//W3C//DTD SVG 1.1//EN" "http://www.w3.org/Graphics/SVG/1.1/DTD/svg11.dtd">
<svg version="1.1" id="Layer_1" xmlns="http://www.w3.org/2000/svg" xmlns:xlink="http://www.w3.org/1999/xlink" x="0px" y="0px"
	 width="127px" height="127px" viewBox="0 0 127 127" enable-background="new 0 0 127 127" xml:space="preserve">
<g>
	<path fill-rule="evenodd" clip-rule="evenodd" fill="#FFFFFF" d="M63.5,0C28.486,0,0,28.486,0,63.5C0,98.515,28.486,127,63.5,127
		c35.015,0,63.5-28.485,63.5-63.5C127,28.486,98.515,0,63.5,0z M63.5,123.956c-33.335,0-60.455-27.121-60.455-60.456
		S30.165,3.045,63.5,3.045s60.456,27.12,60.456,60.455S96.835,123.956,63.5,123.956z"/>
	<path fill-rule="evenodd" clip-rule="evenodd" fill="#FFFFFF" d="M85.291,38.851H40.427c-3.097,0-5.608,2.51-5.608,5.607v37.385
		c0,3.097,2.511,5.607,5.608,5.607h3.163c-0.813,2.343-2.489,6.206-5.032,7.478c0,0,13.951-1.553,19.266-7.478h27.467
		c3.097,0,5.606-2.511,5.606-5.607V44.458C90.897,41.361,88.388,38.851,85.291,38.851z M47.904,66.89
		c-2.065,0-3.739-1.674-3.739-3.739s1.674-3.739,3.739-3.739s3.739,1.674,3.739,3.739S49.969,66.89,47.904,66.89z M62.858,66.89
		c-2.065,0-3.738-1.674-3.738-3.739s1.673-3.739,3.738-3.739c2.064,0,3.738,1.674,3.738,3.739S64.923,66.89,62.858,66.89z
		 M77.813,66.89c-2.064,0-3.739-1.674-3.739-3.739s1.675-3.739,3.739-3.739c2.065,0,3.739,1.674,3.739,3.739
		S79.878,66.89,77.813,66.89z"/>
</g>
</svg>
