<?xml version="1.0" encoding="utf-8"?>
<!-- Generator: Adobe Illustrator 15.0.0, SVG Export Plug-In . SVG Version: 6.00 Build 0)  -->
<!DOCTYPE svg PUBLIC "-//W3C//DTD SVG 1.1//EN" "http://www.w3.org/Graphics/SVG/1.1/DTD/svg11.dtd">
<svg version="1.1" id="Layer_1" xmlns="http://www.w3.org/2000/svg" xmlns:xlink="http://www.w3.org/1999/xlink" x="0px" y="0px"
	 width="136px" height="38px" viewBox="0 0 136 38" enable-background="new 0 0 136 38" xml:space="preserve">
<g>
	<path fill="#58595B" d="M36.624,9.323V10.8h-0.657V0.996h0.657v4.485c0.592-0.9,1.465-1.693,2.821-1.693
		c1.651,0,3.331,1.33,3.331,3.56v0.027c0,2.229-1.68,3.586-3.331,3.586C38.075,10.961,37.188,10.182,36.624,9.323z M42.064,7.401
		V7.375c0-1.8-1.25-2.954-2.687-2.954c-1.424,0-2.793,1.195-2.793,2.94v0.026c0,1.761,1.369,2.942,2.793,2.942
		C40.869,10.33,42.064,9.241,42.064,7.401z"/>
	<path fill="#58595B" d="M44.83,3.949h0.658v1.948c0.537-1.222,1.679-2.109,3.035-2.055v0.726h-0.067
		c-1.585,0-2.968,1.195-2.968,3.425V10.8H44.83V3.949z"/>
	<path fill="#58595B" d="M49.303,8.812V8.786c0-1.425,1.222-2.229,2.994-2.229c0.954,0,1.612,0.12,2.271,0.294V6.557
		c0-1.385-0.846-2.097-2.257-2.097c-0.832,0-1.517,0.229-2.148,0.551L49.92,4.435c0.753-0.351,1.491-0.592,2.432-0.592
		c0.927,0,1.665,0.255,2.162,0.752c0.456,0.457,0.698,1.088,0.698,1.935V10.8h-0.645V9.658c-0.47,0.658-1.316,1.303-2.619,1.303
		C50.673,10.961,49.303,10.236,49.303,8.812z M54.581,8.235V7.456c-0.578-0.147-1.344-0.31-2.323-0.31
		c-1.451,0-2.257,0.645-2.257,1.599v0.027c0,0.993,0.94,1.571,1.988,1.571C53.386,10.344,54.581,9.483,54.581,8.235z"/>
	<path fill="#58595B" d="M57.575,3.949h0.658v1.277c0.457-0.806,1.222-1.438,2.472-1.438c1.731,0,2.739,1.184,2.739,2.821v4.19
		h-0.657v-4.07c0-1.409-0.793-2.336-2.177-2.336c-1.344,0-2.377,1.021-2.377,2.443V10.8h-0.658V3.949z"/>
	<path fill="#58595B" d="M65.364,7.401V7.375c0-2.23,1.679-3.587,3.331-3.587c1.37,0,2.257,0.78,2.82,1.64V0.996h0.658V10.8h-0.658
		V9.269c-0.591,0.899-1.464,1.692-2.82,1.692C67.043,10.961,65.364,9.631,65.364,7.401z M71.556,7.388V7.361
		c0-1.759-1.369-2.94-2.794-2.94c-1.49,0-2.686,1.087-2.686,2.927v0.027c0,1.8,1.249,2.955,2.686,2.955
		C70.187,10.33,71.556,9.135,71.556,7.388z"/>
</g>
<g>
	<path fill="#00AEEF" d="M35.942,15.364h9.486c2.676,0,4.774,0.79,6.143,2.128c1.125,1.155,1.763,2.736,1.763,4.592v0.06
		c0,3.497-2.098,5.596-5.077,6.446l5.746,8.058h-4.408l-5.23-7.418h-0.061h-4.621v7.418h-3.74V15.364z M45.155,25.915
		c2.676,0,4.379-1.399,4.379-3.558v-0.062c0-2.28-1.642-3.526-4.409-3.526h-5.442v7.146H45.155z"/>
	<path fill="#00AEEF" d="M56.404,15.364h15.78v3.344h-12.04v5.534h10.672v3.345H60.145v5.717h12.191v3.344H56.404V15.364z"/>
	<path fill="#00AEEF" d="M82.795,15.212h3.467l9.365,21.436h-3.953l-2.159-5.139H79.45l-2.188,5.139H73.43L82.795,15.212z
		 M88.146,28.194l-3.68-8.513l-3.648,8.513H88.146z"/>
	<path fill="#00AEEF" d="M95.505,26.067v-0.062c0-6.051,4.53-11.008,10.976-11.008c3.923,0,6.295,1.369,8.332,3.314l-2.403,2.768
		c-1.702-1.581-3.526-2.646-5.958-2.646c-4.075,0-7.024,3.345-7.024,7.51v0.062c0,4.165,2.949,7.571,7.024,7.571
		c2.614,0,4.287-1.064,6.11-2.767l2.402,2.432c-2.219,2.312-4.652,3.77-8.636,3.77C100.127,37.012,95.505,32.178,95.505,26.067z"/>
	<path fill="#00AEEF" d="M117.365,15.364h3.739v8.848h10.155v-8.848H135v21.283h-3.74v-8.97h-10.155v8.97h-3.739V15.364z"/>
</g>
<polygon fill="#0095CE" points="29.809,38 14.903,33.032 14.904,15.644 "/>
<polygon fill="#00B3EF" points="29.81,38 14.904,0.74 14.904,15.644 "/>
<polygon fill="#005B8E" points="0,38 14.904,0.74 14.904,15.644 "/>
<polygon fill="#1E3E67" points="0,38 14.903,33.032 14.904,15.644 "/>
<g>
	<g>
		<defs>
			<filter id="Adobe_OpacityMaskFilter" filterUnits="userSpaceOnUse" x="8.202" y="0.739" width="13.169" height="32.293">
				<feFlood  style="flood-color:white;flood-opacity:1" result="back"/>
				<feBlend  in="SourceGraphic" in2="back" mode="normal"/>
			</filter>
		</defs>
		<mask maskUnits="userSpaceOnUse" x="8.202" y="0.739" width="13.169" height="32.293" id="SVGID_1_">
			<g filter="url(#Adobe_OpacityMaskFilter)">
				<defs>
					<filter id="Adobe_OpacityMaskFilter_1_" filterUnits="userSpaceOnUse" x="7.452" y="0.739" width="13.919" height="32.293">
						<feFlood  style="flood-color:white;flood-opacity:1" result="back"/>
						<feBlend  in="SourceGraphic" in2="back" mode="normal"/>
					</filter>
				</defs>
				<mask maskUnits="userSpaceOnUse" x="7.452" y="0.739" width="13.919" height="32.293" id="SVGID_1_">
					<g filter="url(#Adobe_OpacityMaskFilter_1_)">
					</g>
				</mask>
				
					<linearGradient id="SVGID_2_" gradientUnits="userSpaceOnUse" x1="-484.8066" y1="-20.1348" x2="-461.9717" y2="-20.1348" gradientTransform="matrix(0.7071 -0.7071 0.7071 0.7071 363.8735 -303.6102)">
					<stop  offset="0" style="stop-color:#000000"/>
					<stop  offset="0.4956" style="stop-color:#FFFFFF"/>
					<stop  offset="1" style="stop-color:#000000"/>
				</linearGradient>
				<polygon mask="url(#SVGID_1_)" fill="url(#SVGID_2_)" points="7.452,19.369 14.903,33.032 21.371,16.907 14.903,0.739 				"/>
			</g>
		</mask>
		
			<linearGradient id="SVGID_3_" gradientUnits="userSpaceOnUse" x1="-484.8066" y1="-20.1348" x2="-461.9717" y2="-20.1348" gradientTransform="matrix(0.7071 -0.7071 0.7071 0.7071 363.8735 -303.6102)">
			<stop  offset="0" style="stop-color:#FFFFFF"/>
			<stop  offset="0.4956" style="stop-color:#FFFFFF"/>
			<stop  offset="1" style="stop-color:#FFFFFF"/>
		</linearGradient>
		<polygon opacity="0.5" fill="url(#SVGID_3_)" points="8.202,17.496 14.903,33.032 21.371,16.907 14.903,0.739 		"/>
	</g>
	<g>
		<defs>
			<filter id="Adobe_OpacityMaskFilter_2_" filterUnits="userSpaceOnUse" x="0" y="15.644" width="14.904" height="22.356">
				<feFlood  style="flood-color:white;flood-opacity:1" result="back"/>
				<feBlend  in="SourceGraphic" in2="back" mode="normal"/>
			</filter>
		</defs>
		<mask maskUnits="userSpaceOnUse" x="0" y="15.644" width="14.904" height="22.356" id="SVGID_4_">
			<g filter="url(#Adobe_OpacityMaskFilter_2_)">
				<defs>
					<filter id="Adobe_OpacityMaskFilter_3_" filterUnits="userSpaceOnUse" x="0" y="15.644" width="14.904" height="22.356">
						<feFlood  style="flood-color:white;flood-opacity:1" result="back"/>
						<feBlend  in="SourceGraphic" in2="back" mode="normal"/>
					</filter>
				</defs>
				<mask maskUnits="userSpaceOnUse" x="0" y="15.644" width="14.904" height="22.356" id="SVGID_4_">
					<g filter="url(#Adobe_OpacityMaskFilter_3_)">
					</g>
				</mask>
				
					<linearGradient id="SVGID_5_" gradientUnits="userSpaceOnUse" x1="-498.8584" y1="-18.2793" x2="-472.5107" y2="-18.2793" gradientTransform="matrix(0.7071 -0.7071 0.7071 0.7071 363.8735 -303.6102)">
					<stop  offset="0" style="stop-color:#000000"/>
					<stop  offset="0.4956" style="stop-color:#FFFFFF"/>
					<stop  offset="1" style="stop-color:#000000"/>
				</linearGradient>
				<polygon mask="url(#SVGID_4_)" fill="url(#SVGID_5_)" points="14.903,16.132 14.904,15.644 0,38 0.418,37.86 				"/>
			</g>
		</mask>
		
			<linearGradient id="SVGID_6_" gradientUnits="userSpaceOnUse" x1="-498.8584" y1="-18.2793" x2="-472.5107" y2="-18.2793" gradientTransform="matrix(0.7071 -0.7071 0.7071 0.7071 363.8735 -303.6102)">
			<stop  offset="0" style="stop-color:#FFFFFF"/>
			<stop  offset="0.4956" style="stop-color:#FFFFFF"/>
			<stop  offset="1" style="stop-color:#FFFFFF"/>
		</linearGradient>
		<polygon fill="url(#SVGID_6_)" points="14.903,16.132 14.904,15.644 0,38 0.418,37.86 		"/>
		<defs>
			<filter id="Adobe_OpacityMaskFilter_4_" filterUnits="userSpaceOnUse" x="14.904" y="15.644" width="14.904" height="22.356">
				<feFlood  style="flood-color:white;flood-opacity:1" result="back"/>
				<feBlend  in="SourceGraphic" in2="back" mode="normal"/>
			</filter>
		</defs>
		<mask maskUnits="userSpaceOnUse" x="14.904" y="15.644" width="14.904" height="22.356" id="SVGID_7_">
			<g filter="url(#Adobe_OpacityMaskFilter_4_)">
				<defs>
					<filter id="Adobe_OpacityMaskFilter_5_" filterUnits="userSpaceOnUse" x="14.904" y="15.644" width="14.904" height="22.356">
						<feFlood  style="flood-color:white;flood-opacity:1" result="back"/>
						<feBlend  in="SourceGraphic" in2="back" mode="normal"/>
					</filter>
				</defs>
				<mask maskUnits="userSpaceOnUse" x="14.904" y="15.644" width="14.904" height="22.356" id="SVGID_7_">
					<g filter="url(#Adobe_OpacityMaskFilter_5_)">
					</g>
				</mask>
				
					<linearGradient id="SVGID_8_" gradientUnits="userSpaceOnUse" x1="-812.1328" y1="-331.5547" x2="-785.7852" y2="-331.5547" gradientTransform="matrix(-0.7071 -0.7071 -0.7071 0.7071 -777.0979 -303.6102)">
					<stop  offset="0" style="stop-color:#000000"/>
					<stop  offset="0.4956" style="stop-color:#FFFFFF"/>
					<stop  offset="1" style="stop-color:#000000"/>
				</linearGradient>
				<polygon mask="url(#SVGID_7_)" fill="url(#SVGID_8_)" points="14.905,16.132 14.904,15.644 29.809,38 29.391,37.86 				"/>
			</g>
		</mask>
		
			<linearGradient id="SVGID_9_" gradientUnits="userSpaceOnUse" x1="-812.1328" y1="-331.5547" x2="-785.7852" y2="-331.5547" gradientTransform="matrix(-0.7071 -0.7071 -0.7071 0.7071 -777.0979 -303.6102)">
			<stop  offset="0" style="stop-color:#FFFFFF"/>
			<stop  offset="0.4956" style="stop-color:#FFFFFF"/>
			<stop  offset="1" style="stop-color:#FFFFFF"/>
		</linearGradient>
		<polygon fill="url(#SVGID_9_)" points="14.905,16.132 14.904,15.644 29.809,38 29.391,37.86 		"/>
		<defs>
			<filter id="Adobe_OpacityMaskFilter_6_" filterUnits="userSpaceOnUse" x="0" y="0.739" width="14.904" height="37.261">
				<feFlood  style="flood-color:white;flood-opacity:1" result="back"/>
				<feBlend  in="SourceGraphic" in2="back" mode="normal"/>
			</filter>
		</defs>
		<mask maskUnits="userSpaceOnUse" x="0" y="0.739" width="14.904" height="37.261" id="SVGID_10_">
			<g filter="url(#Adobe_OpacityMaskFilter_6_)">
				<defs>
					<filter id="Adobe_OpacityMaskFilter_7_" filterUnits="userSpaceOnUse" x="0" y="0.739" width="15.178" height="37.261">
						<feFlood  style="flood-color:white;flood-opacity:1" result="back"/>
						<feBlend  in="SourceGraphic" in2="back" mode="normal"/>
					</filter>
				</defs>
				<mask maskUnits="userSpaceOnUse" x="0" y="0.739" width="15.178" height="37.261" id="SVGID_10_">
					<g filter="url(#Adobe_OpacityMaskFilter_7_)">
					</g>
				</mask>
				
					<linearGradient id="SVGID_11_" gradientUnits="userSpaceOnUse" x1="-498.8584" y1="-23.5" x2="-461.9717" y2="-23.5" gradientTransform="matrix(0.7071 -0.7071 0.7071 0.7071 363.8735 -303.6102)">
					<stop  offset="0" style="stop-color:#000000"/>
					<stop  offset="0.4956" style="stop-color:#FFFFFF"/>
					<stop  offset="1" style="stop-color:#000000"/>
				</linearGradient>
				<polygon mask="url(#SVGID_10_)" fill="url(#SVGID_11_)" points="15.178,1.422 14.903,0.739 0,38 0.63,37.79 				"/>
			</g>
		</mask>
		
			<linearGradient id="SVGID_12_" gradientUnits="userSpaceOnUse" x1="-498.8584" y1="-23.5" x2="-461.9717" y2="-23.5" gradientTransform="matrix(0.7071 -0.7071 0.7071 0.7071 363.8735 -303.6102)">
			<stop  offset="0" style="stop-color:#FFFFFF"/>
			<stop  offset="0.4956" style="stop-color:#FFFFFF"/>
			<stop  offset="1" style="stop-color:#FFFFFF"/>
		</linearGradient>
		<polygon fill="url(#SVGID_12_)" points="14.904,2.103 14.903,0.739 0,38 0.63,37.79 		"/>
		<defs>
			<filter id="Adobe_OpacityMaskFilter_8_" filterUnits="userSpaceOnUse" x="14.904" y="0.739" width="14.904" height="37.261">
				<feFlood  style="flood-color:white;flood-opacity:1" result="back"/>
				<feBlend  in="SourceGraphic" in2="back" mode="normal"/>
			</filter>
		</defs>
		<mask maskUnits="userSpaceOnUse" x="14.904" y="0.739" width="14.904" height="37.261" id="SVGID_13_">
			<g filter="url(#Adobe_OpacityMaskFilter_8_)">
				<defs>
					<filter id="Adobe_OpacityMaskFilter_9_" filterUnits="userSpaceOnUse" x="14.632" y="0.739" width="15.177" height="37.261">
						<feFlood  style="flood-color:white;flood-opacity:1" result="back"/>
						<feBlend  in="SourceGraphic" in2="back" mode="normal"/>
					</filter>
				</defs>
				<mask maskUnits="userSpaceOnUse" x="14.632" y="0.739" width="15.177" height="37.261" id="SVGID_13_">
					<g filter="url(#Adobe_OpacityMaskFilter_9_)">
					</g>
				</mask>
				
					<linearGradient id="SVGID_14_" gradientUnits="userSpaceOnUse" x1="-812.1309" y1="-336.7725" x2="-775.2451" y2="-336.7725" gradientTransform="matrix(-0.7071 -0.7071 -0.7071 0.7071 -777.0959 -303.6102)">
					<stop  offset="0" style="stop-color:#000000"/>
					<stop  offset="0.4956" style="stop-color:#FFFFFF"/>
					<stop  offset="1" style="stop-color:#000000"/>
				</linearGradient>
				<polygon mask="url(#SVGID_13_)" fill="url(#SVGID_14_)" points="14.632,1.422 14.905,0.739 29.809,38 29.18,37.79 				"/>
			</g>
		</mask>
		
			<linearGradient id="SVGID_15_" gradientUnits="userSpaceOnUse" x1="-812.1309" y1="-336.7725" x2="-775.2451" y2="-336.7725" gradientTransform="matrix(-0.7071 -0.7071 -0.7071 0.7071 -777.0959 -303.6102)">
			<stop  offset="0" style="stop-color:#FFFFFF"/>
			<stop  offset="0.4956" style="stop-color:#FFFFFF"/>
			<stop  offset="1" style="stop-color:#FFFFFF"/>
		</linearGradient>
		<polygon fill="url(#SVGID_15_)" points="14.904,2.103 14.905,0.739 29.809,38 29.18,37.79 		"/>
	</g>
</g>
</svg>
