<?xml version="1.0" encoding="utf-8"?>
<!-- Generator: Adobe Illustrator 16.0.0, SVG Export Plug-In . SVG Version: 6.00 Build 0)  -->
<!DOCTYPE svg PUBLIC "-//W3C//DTD SVG 1.1//EN" "http://www.w3.org/Graphics/SVG/1.1/DTD/svg11.dtd">
<svg version="1.1" id="Layer_1" xmlns="http://www.w3.org/2000/svg" xmlns:xlink="http://www.w3.org/1999/xlink" x="0px" y="0px"
	 width="128px" height="35.329px" viewBox="0 0 128 35.329" enable-background="new 0 0 128 35.329" xml:space="preserve">
<g>
	<defs>
		<rect id="SVGID_1_" width="128" height="35.329"/>
	</defs>
	<clipPath id="SVGID_2_">
		<use xlink:href="#SVGID_1_"  overflow="visible"/>
	</clipPath>
	<g clip-path="url(#SVGID_2_)">
		<defs>
			<rect id="SVGID_3_" width="128" height="35.329"/>
		</defs>
		<clipPath id="SVGID_4_">
			<use xlink:href="#SVGID_3_"  overflow="visible"/>
		</clipPath>
		<path clip-path="url(#SVGID_4_)" fill="#FFFFFF" d="M34.726,8.138v1.401h-0.624V0.243h0.624v4.253
			c0.561-0.853,1.388-1.604,2.674-1.604c1.566,0,3.158,1.261,3.158,3.375v0.025c0,2.114-1.592,3.4-3.158,3.4
			C36.101,9.691,35.26,8.954,34.726,8.138 M39.883,6.317V6.292c0-1.706-1.184-2.801-2.547-2.801c-1.35,0-2.649,1.133-2.649,2.789
			v0.025c0,1.668,1.299,2.789,2.649,2.789C38.75,9.093,39.883,8.062,39.883,6.317"/>
		<path clip-path="url(#SVGID_4_)" fill="#FFFFFF" d="M42.505,3.044h0.625v1.847c0.509-1.159,1.591-2,2.878-1.948V3.63h-0.064
			c-1.502,0-2.814,1.133-2.814,3.248v2.661h-0.625V3.044z"/>
		<path clip-path="url(#SVGID_4_)" fill="#FFFFFF" d="M46.746,7.654V7.629c0-1.35,1.159-2.114,2.84-2.114
			c0.904,0,1.528,0.115,2.152,0.28v-0.28c0-1.312-0.802-1.986-2.14-1.986c-0.79,0-1.439,0.216-2.037,0.522l-0.229-0.547
			c0.713-0.331,1.414-0.561,2.305-0.561c0.879,0,1.58,0.242,2.05,0.713c0.433,0.433,0.663,1.031,0.663,1.833v4.05h-0.611V8.457
			c-0.446,0.624-1.248,1.235-2.483,1.235C48.044,9.691,46.746,9.004,46.746,7.654 M51.75,7.106V6.368
			c-0.547-0.14-1.273-0.293-2.203-0.293c-1.375,0-2.14,0.611-2.14,1.516v0.025c0,0.942,0.892,1.49,1.885,1.49
			C50.617,9.106,51.75,8.291,51.75,7.106"/>
		<path clip-path="url(#SVGID_4_)" fill="#FFFFFF" d="M54.59,3.044h0.624v1.21c0.433-0.764,1.158-1.363,2.343-1.363
			c1.643,0,2.598,1.121,2.598,2.674v3.973h-0.624V5.681c0-1.337-0.751-2.216-2.063-2.216c-1.273,0-2.253,0.968-2.253,2.318v3.757
			H54.59V3.044z"/>
		<path clip-path="url(#SVGID_4_)" fill="#FFFFFF" d="M61.975,6.317V6.292c0-2.114,1.592-3.4,3.159-3.4
			c1.299,0,2.139,0.739,2.674,1.554V0.243h0.624v9.296h-0.624V8.087c-0.561,0.854-1.388,1.604-2.674,1.604
			C63.567,9.691,61.975,8.431,61.975,6.317 M67.846,6.304V6.279c0-1.668-1.3-2.789-2.649-2.789c-1.413,0-2.547,1.031-2.547,2.776
			v0.025c0,1.707,1.185,2.802,2.547,2.802C66.546,9.093,67.846,7.96,67.846,6.304"/>
		<path clip-path="url(#SVGID_4_)" fill="#FFFFFF" d="M34.079,13.866h8.995c2.537,0,4.526,0.75,5.823,2.018
			c1.066,1.095,1.672,2.594,1.672,4.353v0.058c0,3.315-1.989,5.305-4.814,6.111l5.449,7.641h-4.18l-4.959-7.035h-0.058h-4.382v7.035
			h-3.546V13.866z M42.814,23.87c2.537,0,4.152-1.326,4.152-3.373v-0.058c0-2.163-1.557-3.345-4.181-3.345h-5.16v6.775H42.814z"/>
		<polygon clip-path="url(#SVGID_4_)" fill="#FFFFFF" points="53.479,13.866 68.442,13.866 68.442,17.038 57.025,17.038 
			57.025,22.284 67.144,22.284 67.144,25.455 57.025,25.455 57.025,30.876 68.585,30.876 68.585,34.046 53.479,34.046 		"/>
		<path clip-path="url(#SVGID_4_)" fill="#FFFFFF" d="M78.501,13.722h3.287l8.879,20.324H86.92l-2.047-4.871h-9.543l-2.076,4.871
			h-3.632L78.501,13.722z M83.576,26.032l-3.488-8.072l-3.459,8.072H83.576z"/>
		<path clip-path="url(#SVGID_4_)" fill="#FFFFFF" d="M90.552,24.014v-0.058c0-5.736,4.296-10.436,10.407-10.436
			c3.719,0,5.968,1.297,7.899,3.143l-2.277,2.624c-1.614-1.499-3.345-2.508-5.65-2.508c-3.863,0-6.66,3.171-6.66,7.121v0.058
			c0,3.95,2.797,7.179,6.66,7.179c2.479,0,4.064-1.009,5.794-2.623l2.278,2.306c-2.104,2.191-4.411,3.575-8.188,3.575
			C94.935,34.393,90.552,29.809,90.552,24.014"/>
		<polygon clip-path="url(#SVGID_4_)" fill="#FFFFFF" points="111.28,13.866 114.826,13.866 114.826,22.255 124.455,22.255 
			124.455,13.866 128,13.866 128,34.046 124.455,34.046 124.455,25.542 114.826,25.542 114.826,34.046 111.28,34.046 		"/>
		<g opacity="0.9" clip-path="url(#SVGID_4_)">
			<g>
				<defs>
					<rect id="SVGID_5_" x="14.131" y="14.131" width="14.132" height="21.198"/>
				</defs>
				<clipPath id="SVGID_6_">
					<use xlink:href="#SVGID_5_"  overflow="visible"/>
				</clipPath>
				<polygon clip-path="url(#SVGID_6_)" fill="#FFFFFF" points="28.263,35.329 14.131,30.618 14.131,14.131 				"/>
			</g>
		</g>
		<g opacity="0.5" clip-path="url(#SVGID_4_)">
			<g>
				<defs>
					<rect id="SVGID_7_" x="14.131" width="14.132" height="35.329"/>
				</defs>
				<clipPath id="SVGID_8_">
					<use xlink:href="#SVGID_7_"  overflow="visible"/>
				</clipPath>
				<polygon clip-path="url(#SVGID_8_)" fill="#FFFFFF" points="28.263,35.329 14.131,0 14.132,14.131 				"/>
			</g>
		</g>
		<g opacity="0.5" clip-path="url(#SVGID_4_)">
			<g>
				<defs>
					<rect id="SVGID_9_" width="14.132" height="35.328"/>
				</defs>
				<clipPath id="SVGID_10_">
					<use xlink:href="#SVGID_9_"  overflow="visible"/>
				</clipPath>
				<polygon clip-path="url(#SVGID_10_)" fill="#FFFFFF" points="0,35.328 14.131,0 14.131,14.131 				"/>
			</g>
		</g>
		<g opacity="0.9" clip-path="url(#SVGID_4_)">
			<g>
				<defs>
					<rect id="SVGID_11_" y="14.131" width="14.131" height="21.197"/>
				</defs>
				<clipPath id="SVGID_12_">
					<use xlink:href="#SVGID_11_"  overflow="visible"/>
				</clipPath>
				<polygon clip-path="url(#SVGID_12_)" fill="#FFFFFF" points="0,35.328 14.131,30.618 14.131,14.131 				"/>
			</g>
		</g>
		<defs>
			<filter id="Adobe_OpacityMaskFilter" filterUnits="userSpaceOnUse" x="7.777" y="0" width="12.486" height="30.618">
				<feFlood  style="flood-color:white;flood-opacity:1" result="back"/>
				<feBlend  in="SourceGraphic" in2="back" mode="normal"/>
			</filter>
		</defs>
		<mask maskUnits="userSpaceOnUse" x="7.777" y="0" width="12.486" height="30.618" id="SVGID_13_">
			<g filter="url(#Adobe_OpacityMaskFilter)">
				<g enable-background="new    ">
					<g>
						<defs>
							<polygon id="SVGID_14_" points="7.066,17.664 14.13,30.618 20.263,15.33 14.131,0 							"/>
						</defs>
						<clipPath id="SVGID_15_" clip-path="url(#SVGID_4_)">
							<use xlink:href="#SVGID_14_"  overflow="visible"/>
						</clipPath>
						<defs>
							
								<filter id="Adobe_OpacityMaskFilter_1_" filterUnits="userSpaceOnUse" x="-8.243" y="-6.599" width="43.815" height="43.814">
								<feFlood  style="flood-color:white;flood-opacity:1" result="back"/>
								<feBlend  in="SourceGraphic" in2="back" mode="normal"/>
							</filter>
						</defs>
						<mask maskUnits="userSpaceOnUse" x="-8.243" y="-6.599" width="43.815" height="43.814" id="SVGID_13_">
							<g filter="url(#Adobe_OpacityMaskFilter_1_)">
								<g enable-background="new    ">
								</g>
							</g>
						</mask>
						
							<linearGradient id="SVGID_16_" gradientUnits="userSpaceOnUse" x1="-119.2417" y1="67.5" x2="-118.8949" y2="67.5" gradientTransform="matrix(44.1533 -44.1528 -44.1533 -44.1531 8251.5488 -2261.73)">
							<stop  offset="0" style="stop-color:#231F20"/>
							<stop  offset="0.4956" style="stop-color:#FFFFFF"/>
							<stop  offset="1" style="stop-color:#231F20"/>
						</linearGradient>
						<polygon clip-path="url(#SVGID_15_)" mask="url(#SVGID_13_)" fill="url(#SVGID_16_)" points="-8.243,15.309 13.665,-6.599 
							35.572,15.309 13.665,37.216 						"/>
					</g>
				</g>
			</g>
		</mask>
		<g opacity="0.5" clip-path="url(#SVGID_4_)">
			<g>
				<defs>
					<rect id="SVGID_17_" x="7.777" width="12.486" height="30.618"/>
				</defs>
				<clipPath id="SVGID_18_">
					<use xlink:href="#SVGID_17_"  overflow="visible"/>
				</clipPath>
				<polygon clip-path="url(#SVGID_18_)" fill="#FFFFFF" points="7.777,15.887 14.131,30.618 20.263,15.33 14.131,0 				"/>
			</g>
		</g>
		<defs>
			<filter id="Adobe_OpacityMaskFilter_2_" filterUnits="userSpaceOnUse" x="0" y="14.131" width="14.131" height="21.197">
				<feFlood  style="flood-color:white;flood-opacity:1" result="back"/>
				<feBlend  in="SourceGraphic" in2="back" mode="normal"/>
			</filter>
		</defs>
		<mask maskUnits="userSpaceOnUse" x="0" y="14.131" width="14.131" height="21.197" id="SVGID_19_">
			<g filter="url(#Adobe_OpacityMaskFilter_2_)">
				<g enable-background="new    ">
					<g>
						<defs>
							<polygon id="SVGID_20_" points="14.13,14.595 14.131,14.131 0,35.328 0.396,35.196 							"/>
						</defs>
						<clipPath id="SVGID_21_" clip-path="url(#SVGID_4_)">
							<use xlink:href="#SVGID_20_"  overflow="visible"/>
						</clipPath>
						<defs>
							
								<filter id="Adobe_OpacityMaskFilter_3_" filterUnits="userSpaceOnUse" x="-10.599" y="7.065" width="35.329" height="35.329">
								<feFlood  style="flood-color:white;flood-opacity:1" result="back"/>
								<feBlend  in="SourceGraphic" in2="back" mode="normal"/>
							</filter>
						</defs>
						<mask maskUnits="userSpaceOnUse" x="-10.599" y="7.065" width="35.329" height="35.329" id="SVGID_19_">
							<g filter="url(#Adobe_OpacityMaskFilter_3_)">
								<g enable-background="new    ">
								</g>
							</g>
						</mask>
						
							<linearGradient id="SVGID_22_" gradientUnits="userSpaceOnUse" x1="-119.0713" y1="67.6924" x2="-118.7246" y2="67.6924" gradientTransform="matrix(50.9457 -50.945 -50.9457 -50.9454 9513.0234 -2583.916)">
							<stop  offset="0" style="stop-color:#231F20"/>
							<stop  offset="0.4956" style="stop-color:#FFFFFF"/>
							<stop  offset="1" style="stop-color:#231F20"/>
						</linearGradient>
						<polygon clip-path="url(#SVGID_21_)" mask="url(#SVGID_19_)" fill="url(#SVGID_22_)" points="-10.599,24.729 7.065,7.065 
							24.73,24.729 7.065,42.395 						"/>
					</g>
				</g>
			</g>
		</mask>
		<g opacity="0.5" clip-path="url(#SVGID_4_)">
			<g>
				<defs>
					<rect id="SVGID_23_" y="14.131" width="14.131" height="21.197"/>
				</defs>
				<clipPath id="SVGID_24_">
					<use xlink:href="#SVGID_23_"  overflow="visible"/>
				</clipPath>
				<polyline clip-path="url(#SVGID_24_)" fill="#FFFFFF" points="0.396,35.196 14.131,14.595 14.131,14.131 0,35.328 				"/>
			</g>
		</g>
		<defs>
			<filter id="Adobe_OpacityMaskFilter_4_" filterUnits="userSpaceOnUse" x="14.131" y="14.131" width="14.131" height="21.197">
				<feFlood  style="flood-color:white;flood-opacity:1" result="back"/>
				<feBlend  in="SourceGraphic" in2="back" mode="normal"/>
			</filter>
		</defs>
		<mask maskUnits="userSpaceOnUse" x="14.131" y="14.131" width="14.131" height="21.197" id="SVGID_25_">
			<g filter="url(#Adobe_OpacityMaskFilter_4_)">
				<g enable-background="new    ">
					<g>
						<defs>
							<polygon id="SVGID_26_" points="14.132,14.595 14.131,14.131 28.263,35.328 27.866,35.196 							"/>
						</defs>
						<clipPath id="SVGID_27_" clip-path="url(#SVGID_4_)">
							<use xlink:href="#SVGID_26_"  overflow="visible"/>
						</clipPath>
						<defs>
							<filter id="Adobe_OpacityMaskFilter_5_" filterUnits="userSpaceOnUse" x="3.533" y="7.065" width="35.329" height="35.329">
								<feFlood  style="flood-color:white;flood-opacity:1" result="back"/>
								<feBlend  in="SourceGraphic" in2="back" mode="normal"/>
							</filter>
						</defs>
						<mask maskUnits="userSpaceOnUse" x="3.533" y="7.065" width="35.329" height="35.329" id="SVGID_25_">
							<g filter="url(#Adobe_OpacityMaskFilter_5_)">
								<g enable-background="new    ">
								</g>
							</g>
						</mask>
						
							<linearGradient id="SVGID_28_" gradientUnits="userSpaceOnUse" x1="-120.915" y1="69.5361" x2="-120.5684" y2="69.5361" gradientTransform="matrix(-50.9457 -50.945 50.9457 -50.9454 -9672.6738 -2583.916)">
							<stop  offset="0" style="stop-color:#231F20"/>
							<stop  offset="0.4956" style="stop-color:#FFFFFF"/>
							<stop  offset="1" style="stop-color:#231F20"/>
						</linearGradient>
						<polygon clip-path="url(#SVGID_27_)" mask="url(#SVGID_25_)" fill="url(#SVGID_28_)" points="38.861,24.729 21.197,7.065 
							3.533,24.729 21.197,42.395 						"/>
					</g>
				</g>
			</g>
		</mask>
		<g opacity="0.5" clip-path="url(#SVGID_4_)">
			<g>
				<defs>
					<rect id="SVGID_29_" x="14.131" y="14.131" width="14.131" height="21.197"/>
				</defs>
				<clipPath id="SVGID_30_">
					<use xlink:href="#SVGID_29_"  overflow="visible"/>
				</clipPath>
				<polygon clip-path="url(#SVGID_30_)" fill="#FFFFFF" points="14.132,14.594 14.131,14.131 28.263,35.328 27.867,35.196 				"/>
			</g>
		</g>
		<defs>
			<filter id="Adobe_OpacityMaskFilter_6_" filterUnits="userSpaceOnUse" x="0" y="0" width="14.132" height="35.328">
				<feFlood  style="flood-color:white;flood-opacity:1" result="back"/>
				<feBlend  in="SourceGraphic" in2="back" mode="normal"/>
			</filter>
		</defs>
		<mask maskUnits="userSpaceOnUse" x="0" y="0" width="14.132" height="35.328" id="SVGID_31_">
			<g filter="url(#Adobe_OpacityMaskFilter_6_)">
				<g enable-background="new    ">
					<g>
						<defs>
							<polygon id="SVGID_32_" points="14.39,0.647 14.131,0 0,35.328 0.597,35.13 							"/>
						</defs>
						<clipPath id="SVGID_33_" clip-path="url(#SVGID_4_)">
							<use xlink:href="#SVGID_32_"  overflow="visible"/>
						</clipPath>
						<defs>
							
								<filter id="Adobe_OpacityMaskFilter_7_" filterUnits="userSpaceOnUse" x="-17.665" y="-7.195" width="49.719" height="49.718">
								<feFlood  style="flood-color:white;flood-opacity:1" result="back"/>
								<feBlend  in="SourceGraphic" in2="back" mode="normal"/>
							</filter>
						</defs>
						<mask maskUnits="userSpaceOnUse" x="-17.665" y="-7.195" width="49.719" height="49.718" id="SVGID_31_">
							<g filter="url(#Adobe_OpacityMaskFilter_7_)">
								<g enable-background="new    ">
								</g>
							</g>
						</mask>
						
							<linearGradient id="SVGID_34_" gradientUnits="userSpaceOnUse" x1="-119.5029" y1="67.8613" x2="-119.156" y2="67.8613" gradientTransform="matrix(71.3231 -71.3223 -71.3232 -71.3228 13358.1836 -3653.0601)">
							<stop  offset="0" style="stop-color:#231F20"/>
							<stop  offset="0.4956" style="stop-color:#FFFFFF"/>
							<stop  offset="1" style="stop-color:#231F20"/>
						</linearGradient>
						<polygon clip-path="url(#SVGID_33_)" mask="url(#SVGID_31_)" fill="url(#SVGID_34_)" points="-17.665,17.664 7.195,-7.195 
							32.054,17.664 7.195,42.523 						"/>
					</g>
				</g>
			</g>
		</mask>
		<g clip-path="url(#SVGID_4_)">
			<g>
				<defs>
					<rect id="SVGID_35_" width="14.132" height="35.328"/>
				</defs>
				<clipPath id="SVGID_36_">
					<use xlink:href="#SVGID_35_"  overflow="visible"/>
				</clipPath>
				<polyline clip-path="url(#SVGID_36_)" fill="#FFFFFF" points="0.597,35.129 14.131,1.293 14.131,0 0,35.328 				"/>
			</g>
		</g>
		<defs>
			<filter id="Adobe_OpacityMaskFilter_8_" filterUnits="userSpaceOnUse" x="14.131" y="0" width="14.132" height="35.329">
				<feFlood  style="flood-color:white;flood-opacity:1" result="back"/>
				<feBlend  in="SourceGraphic" in2="back" mode="normal"/>
			</filter>
		</defs>
		<mask maskUnits="userSpaceOnUse" x="14.131" y="0" width="14.132" height="35.329" id="SVGID_37_">
			<g filter="url(#Adobe_OpacityMaskFilter_8_)">
				<g enable-background="new    ">
					<g>
						<defs>
							<polygon id="SVGID_38_" points="13.873,0.647 14.132,0 28.263,35.328 27.666,35.13 							"/>
						</defs>
						<clipPath id="SVGID_39_" clip-path="url(#SVGID_4_)">
							<use xlink:href="#SVGID_38_"  overflow="visible"/>
						</clipPath>
						<defs>
							
								<filter id="Adobe_OpacityMaskFilter_9_" filterUnits="userSpaceOnUse" x="-3.792" y="-7.195" width="49.719" height="49.718">
								<feFlood  style="flood-color:white;flood-opacity:1" result="back"/>
								<feBlend  in="SourceGraphic" in2="back" mode="normal"/>
							</filter>
						</defs>
						<mask maskUnits="userSpaceOnUse" x="-3.792" y="-7.195" width="49.719" height="49.718" id="SVGID_37_">
							<g filter="url(#Adobe_OpacityMaskFilter_9_)">
								<g enable-background="new    ">
								</g>
							</g>
						</mask>
						
							<linearGradient id="SVGID_40_" gradientUnits="userSpaceOnUse" x1="-120.8203" y1="69.1787" x2="-120.4735" y2="69.1787" gradientTransform="matrix(-71.3231 -71.3223 71.3232 -71.3228 -13517.834 -3653.0601)">
							<stop  offset="0" style="stop-color:#231F20"/>
							<stop  offset="0.4956" style="stop-color:#FFFFFF"/>
							<stop  offset="1" style="stop-color:#231F20"/>
						</linearGradient>
						<polygon clip-path="url(#SVGID_39_)" mask="url(#SVGID_37_)" fill="url(#SVGID_40_)" points="45.928,17.664 21.068,-7.195 
							-3.792,17.664 21.068,42.523 						"/>
					</g>
				</g>
			</g>
		</mask>
		<g clip-path="url(#SVGID_4_)">
			<g>
				<defs>
					<rect id="SVGID_41_" x="14.131" width="14.132" height="35.328"/>
				</defs>
				<clipPath id="SVGID_42_">
					<use xlink:href="#SVGID_41_"  overflow="visible"/>
				</clipPath>
				<polygon clip-path="url(#SVGID_42_)" fill="#FFFFFF" points="14.131,1.293 14.132,0 28.263,35.328 27.666,35.13 				"/>
			</g>
		</g>
	</g>
</g>
</svg>
