<?xml version="1.0" encoding="utf-8"?>
<!-- Generator: Adobe Illustrator 16.0.0, SVG Export Plug-In . SVG Version: 6.00 Build 0)  -->
<!DOCTYPE svg PUBLIC "-//W3C//DTD SVG 1.1//EN" "http://www.w3.org/Graphics/SVG/1.1/DTD/svg11.dtd">
<svg version="1.1" id="Layer_1" xmlns="http://www.w3.org/2000/svg" xmlns:xlink="http://www.w3.org/1999/xlink" x="0px" y="0px"
	 width="136px" height="37.537px" viewBox="0 0 136 37.537" enable-background="new 0 0 136 37.537" xml:space="preserve">
<g>
	<defs>
		<rect id="SVGID_1_" width="136" height="37.537"/>
	</defs>
	<clipPath id="SVGID_2_">
		<use xlink:href="#SVGID_1_"  overflow="visible"/>
	</clipPath>
	<g clip-path="url(#SVGID_2_)">
		<defs>
			<rect id="SVGID_3_" width="136" height="37.537"/>
		</defs>
		<clipPath id="SVGID_4_">
			<use xlink:href="#SVGID_3_"  overflow="visible"/>
		</clipPath>
		<path clip-path="url(#SVGID_4_)" fill="#58595B" d="M36.896,8.647v1.488h-0.663V0.258h0.663v4.52
			c0.595-0.907,1.475-1.705,2.842-1.705c1.664,0,3.355,1.339,3.355,3.585v0.027c0,2.247-1.692,3.613-3.355,3.613
			C38.357,10.298,37.464,9.514,36.896,8.647 M42.375,6.712V6.685c0-1.813-1.258-2.976-2.706-2.976c-1.434,0-2.814,1.204-2.814,2.963
			v0.027c0,1.772,1.381,2.963,2.814,2.963C41.171,9.662,42.375,8.566,42.375,6.712"/>
		<path clip-path="url(#SVGID_4_)" fill="#58595B" d="M45.162,3.235h0.663v1.962c0.542-1.231,1.691-2.125,3.058-2.07v0.73h-0.068
			c-1.596,0-2.99,1.205-2.99,3.451v2.828h-0.663V3.235z"/>
		<path clip-path="url(#SVGID_4_)" fill="#58595B" d="M49.667,8.133V8.106c0-1.434,1.231-2.246,3.018-2.246
			c0.96,0,1.624,0.122,2.286,0.298V5.86c0-1.394-0.853-2.11-2.273-2.11c-0.839,0-1.529,0.23-2.165,0.554L50.29,3.723
			c0.757-0.353,1.501-0.596,2.449-0.596c0.934,0,1.678,0.257,2.178,0.758c0.46,0.46,0.704,1.096,0.704,1.948v4.303h-0.65v-1.15
			c-0.474,0.663-1.326,1.313-2.639,1.313C51.047,10.298,49.667,9.567,49.667,8.133 M54.985,7.551V6.767
			c-0.582-0.149-1.353-0.311-2.341-0.311c-1.461,0-2.273,0.649-2.273,1.61v0.027c0,1.001,0.947,1.583,2.002,1.583
			C53.781,9.675,54.985,8.81,54.985,7.551"/>
		<path clip-path="url(#SVGID_4_)" fill="#58595B" d="M58.001,3.235h0.663v1.286c0.46-0.812,1.231-1.448,2.489-1.448
			c1.746,0,2.761,1.191,2.761,2.842v4.221h-0.663v-4.1c0-1.421-0.798-2.354-2.192-2.354c-1.353,0-2.395,1.028-2.395,2.463v3.991
			h-0.663V3.235z"/>
		<path clip-path="url(#SVGID_4_)" fill="#58595B" d="M65.848,6.712V6.685c0-2.246,1.691-3.612,3.355-3.612
			c1.381,0,2.273,0.785,2.842,1.651V0.258h0.663v9.877h-0.663V8.593c-0.596,0.907-1.475,1.705-2.842,1.705
			C67.54,10.298,65.848,8.958,65.848,6.712 M72.086,6.699V6.672c0-1.772-1.381-2.963-2.814-2.963c-1.502,0-2.707,1.096-2.707,2.949
			v0.027c0,1.813,1.258,2.977,2.707,2.977C70.706,9.662,72.086,8.458,72.086,6.699"/>
		<path clip-path="url(#SVGID_4_)" fill="#00AEEF" d="M36.209,14.733h9.557c2.695,0,4.809,0.796,6.188,2.144
			c1.133,1.164,1.776,2.756,1.776,4.625v0.061c0,3.523-2.114,5.637-5.115,6.494l5.789,8.117h-4.441l-5.269-7.474h-0.062h-4.656
			v7.474h-3.768V14.733z M45.49,25.362c2.696,0,4.411-1.409,4.411-3.584v-0.062c0-2.297-1.654-3.553-4.442-3.553h-5.482v7.199H45.49
			z"/>
		<polygon clip-path="url(#SVGID_4_)" fill="#00AEEF" points="56.822,14.733 72.719,14.733 72.719,18.103 60.59,18.103 
			60.59,23.678 71.34,23.678 71.34,27.047 60.59,27.047 60.59,32.806 72.873,32.806 72.873,36.175 56.822,36.175 		"/>
		<path clip-path="url(#SVGID_4_)" fill="#00AEEF" d="M83.409,14.58h3.492l9.434,21.595h-3.981l-2.176-5.177H80.039l-2.205,5.177
			h-3.859L83.409,14.58z M88.799,27.659l-3.707-8.576l-3.675,8.576H88.799z"/>
		<path clip-path="url(#SVGID_4_)" fill="#00AEEF" d="M96.212,25.516v-0.062c0-6.095,4.563-11.088,11.058-11.088
			c3.951,0,6.34,1.378,8.393,3.339l-2.42,2.787c-1.716-1.592-3.553-2.664-6.004-2.664c-4.104,0-7.075,3.369-7.075,7.565v0.062
			c0,4.196,2.971,7.627,7.075,7.627c2.635,0,4.319-1.072,6.157-2.787l2.42,2.45c-2.236,2.328-4.687,3.799-8.699,3.799
			C100.868,36.543,96.212,31.672,96.212,25.516"/>
		<polygon clip-path="url(#SVGID_4_)" fill="#00AEEF" points="118.235,14.733 122.001,14.733 122.001,23.646 132.233,23.646 
			132.233,14.733 136,14.733 136,36.175 132.233,36.175 132.233,27.139 122.001,27.139 122.001,36.175 118.235,36.175 		"/>
		<polygon clip-path="url(#SVGID_4_)" fill="#0095CE" points="30.029,37.537 15.014,32.532 15.015,15.015 		"/>
		<polygon clip-path="url(#SVGID_4_)" fill="#00B3EF" points="30.03,37.537 15.015,0 15.015,15.015 		"/>
		<polygon clip-path="url(#SVGID_4_)" fill="#005B8E" points="0,37.537 15.014,0 15.015,15.015 		"/>
		<polygon clip-path="url(#SVGID_4_)" fill="#1E3E67" points="0,37.537 15.014,32.532 15.015,15.015 		"/>
		<defs>
			<filter id="Adobe_OpacityMaskFilter" filterUnits="userSpaceOnUse" x="-8.004" y="-6.633" width="45.799" height="45.799">
				<feFlood  style="flood-color:white;flood-opacity:1" result="back"/>
				<feBlend  in="SourceGraphic" in2="back" mode="normal"/>
			</filter>
		</defs>
		<mask maskUnits="userSpaceOnUse" x="-8.004" y="-6.633" width="45.799" height="45.799" id="SVGID_5_">
			<g filter="url(#Adobe_OpacityMaskFilter)">
				<g enable-background="new    ">
					<g>
						<defs>
							<polygon id="SVGID_6_" points="7.508,18.768 15.014,32.532 21.529,16.288 15.014,0 							"/>
						</defs>
						<clipPath id="SVGID_7_" clip-path="url(#SVGID_4_)">
							<use xlink:href="#SVGID_6_"  overflow="visible"/>
						</clipPath>
						<defs>
							<filter id="Adobe_OpacityMaskFilter_1_" filterUnits="userSpaceOnUse" x="-8.758" y="-7.01" width="46.553" height="46.553">
								<feFlood  style="flood-color:white;flood-opacity:1" result="back"/>
								<feBlend  in="SourceGraphic" in2="back" mode="normal"/>
							</filter>
						</defs>
						<mask maskUnits="userSpaceOnUse" x="-8.758" y="-7.01" width="46.553" height="46.553" id="SVGID_5_">
							<g filter="url(#Adobe_OpacityMaskFilter_1_)">
								<g enable-background="new    ">
								</g>
							</g>
						</mask>
						
							<linearGradient id="SVGID_8_" gradientUnits="userSpaceOnUse" x1="-115.2866" y1="68.6416" x2="-114.918" y2="68.6416" gradientTransform="matrix(44.1533 -44.1528 -44.1533 -44.1531 8127.7017 -2035.2476)">
							<stop  offset="0" style="stop-color:#231F20"/>
							<stop  offset="0.4956" style="stop-color:#FFFFFF"/>
							<stop  offset="1" style="stop-color:#231F20"/>
						</linearGradient>
						<polygon clip-path="url(#SVGID_7_)" mask="url(#SVGID_5_)" fill="url(#SVGID_8_)" points="-8.758,16.266 14.519,-7.01 
							37.795,16.266 14.519,39.543 						"/>
					</g>
				</g>
			</g>
		</mask>
		<g opacity="0.5" clip-path="url(#SVGID_4_)">
			<g>
				<defs>
					<rect id="SVGID_9_" x="8.263" width="13.267" height="32.532"/>
				</defs>
				<clipPath id="SVGID_10_">
					<use xlink:href="#SVGID_9_"  overflow="visible"/>
				</clipPath>
				<g clip-path="url(#SVGID_10_)">
					<defs>
						<polygon id="SVGID_11_" points="8.263,16.88 15.014,32.532 21.529,16.288 15.014,0 						"/>
					</defs>
					<clipPath id="SVGID_12_">
						<use xlink:href="#SVGID_11_"  overflow="visible"/>
					</clipPath>
					
						<linearGradient id="SVGID_13_" gradientUnits="userSpaceOnUse" x1="-115.2861" y1="68.6367" x2="-114.9178" y2="68.6367" gradientTransform="matrix(44.1533 -44.1528 -44.1533 -44.1531 8127.7017 -2035.2476)">
						<stop  offset="0" style="stop-color:#FFFFFF"/>
						<stop  offset="0.4956" style="stop-color:#FFFFFF"/>
						<stop  offset="1" style="stop-color:#FFFFFF"/>
					</linearGradient>
					<polygon clip-path="url(#SVGID_12_)" fill="url(#SVGID_13_)" points="-8.004,16.266 14.896,-6.633 37.795,16.266 
						14.896,39.166 					"/>
				</g>
			</g>
		</g>
		<defs>
			<filter id="Adobe_OpacityMaskFilter_2_" filterUnits="userSpaceOnUse" x="-11.261" y="7.508" width="37.537" height="37.536">
				<feFlood  style="flood-color:white;flood-opacity:1" result="back"/>
				<feBlend  in="SourceGraphic" in2="back" mode="normal"/>
			</filter>
		</defs>
		<mask maskUnits="userSpaceOnUse" x="-11.261" y="7.508" width="37.537" height="37.536" id="SVGID_14_">
			<g filter="url(#Adobe_OpacityMaskFilter_2_)">
				<g enable-background="new    ">
					<g>
						<defs>
							<polygon id="SVGID_15_" points="15.014,15.507 15.015,15.015 0,37.537 0.421,37.396 							"/>
						</defs>
						<clipPath id="SVGID_16_" clip-path="url(#SVGID_4_)">
							<use xlink:href="#SVGID_15_"  overflow="visible"/>
						</clipPath>
						<defs>
							
								<filter id="Adobe_OpacityMaskFilter_3_" filterUnits="userSpaceOnUse" x="-11.261" y="7.508" width="37.537" height="37.536">
								<feFlood  style="flood-color:white;flood-opacity:1" result="back"/>
								<feBlend  in="SourceGraphic" in2="back" mode="normal"/>
							</filter>
						</defs>
						<mask maskUnits="userSpaceOnUse" x="-11.261" y="7.508" width="37.537" height="37.536" id="SVGID_14_">
							<g filter="url(#Adobe_OpacityMaskFilter_3_)">
								<g enable-background="new    ">
								</g>
							</g>
						</mask>
						
							<linearGradient id="SVGID_17_" gradientUnits="userSpaceOnUse" x1="-115.1211" y1="68.8262" x2="-114.7529" y2="68.8262" gradientTransform="matrix(50.9457 -50.945 -50.9457 -50.9454 9369.5098 -2322.7625)">
							<stop  offset="0" style="stop-color:#231F20"/>
							<stop  offset="0.4956" style="stop-color:#FFFFFF"/>
							<stop  offset="1" style="stop-color:#231F20"/>
						</linearGradient>
						<polygon clip-path="url(#SVGID_16_)" mask="url(#SVGID_14_)" fill="url(#SVGID_17_)" points="-11.261,26.276 7.507,7.508 
							26.276,26.276 7.507,45.044 						"/>
					</g>
				</g>
			</g>
		</mask>
		<g clip-path="url(#SVGID_4_)">
			<g>
				<defs>
					<rect id="SVGID_18_" y="15.015" width="15.015" height="22.522"/>
				</defs>
				<clipPath id="SVGID_19_">
					<use xlink:href="#SVGID_18_"  overflow="visible"/>
				</clipPath>
				<g clip-path="url(#SVGID_19_)">
					<defs>
						<polygon id="SVGID_20_" points="15.014,15.507 15.015,15.015 0,37.537 0.421,37.396 						"/>
					</defs>
					<clipPath id="SVGID_21_">
						<use xlink:href="#SVGID_20_"  overflow="visible"/>
					</clipPath>
					
						<linearGradient id="SVGID_22_" gradientUnits="userSpaceOnUse" x1="-115.1211" y1="68.8262" x2="-114.7529" y2="68.8262" gradientTransform="matrix(50.9457 -50.945 -50.9457 -50.9454 9369.5098 -2322.7625)">
						<stop  offset="0" style="stop-color:#FFFFFF"/>
						<stop  offset="0.4956" style="stop-color:#FFFFFF"/>
						<stop  offset="1" style="stop-color:#FFFFFF"/>
					</linearGradient>
					<polygon clip-path="url(#SVGID_21_)" fill="url(#SVGID_22_)" points="-11.261,26.276 7.507,7.508 26.276,26.276 7.507,45.044 
											"/>
				</g>
			</g>
		</g>
		<defs>
			<filter id="Adobe_OpacityMaskFilter_4_" filterUnits="userSpaceOnUse" x="3.753" y="7.508" width="37.537" height="37.536">
				<feFlood  style="flood-color:white;flood-opacity:1" result="back"/>
				<feBlend  in="SourceGraphic" in2="back" mode="normal"/>
			</filter>
		</defs>
		<mask maskUnits="userSpaceOnUse" x="3.753" y="7.508" width="37.537" height="37.536" id="SVGID_23_">
			<g filter="url(#Adobe_OpacityMaskFilter_4_)">
				<g enable-background="new    ">
					<g>
						<defs>
							<polygon id="SVGID_24_" points="15.015,15.507 15.015,15.015 30.029,37.537 29.608,37.396 							"/>
						</defs>
						<clipPath id="SVGID_25_" clip-path="url(#SVGID_4_)">
							<use xlink:href="#SVGID_24_"  overflow="visible"/>
						</clipPath>
						<defs>
							<filter id="Adobe_OpacityMaskFilter_5_" filterUnits="userSpaceOnUse" x="3.753" y="7.508" width="37.537" height="37.536">
								<feFlood  style="flood-color:white;flood-opacity:1" result="back"/>
								<feBlend  in="SourceGraphic" in2="back" mode="normal"/>
							</filter>
						</defs>
						<mask maskUnits="userSpaceOnUse" x="3.753" y="7.508" width="37.537" height="37.536" id="SVGID_23_">
							<g filter="url(#Adobe_OpacityMaskFilter_5_)">
								<g enable-background="new    ">
								</g>
							</g>
						</mask>
						
							<linearGradient id="SVGID_26_" gradientUnits="userSpaceOnUse" x1="-116.9043" y1="70.6094" x2="-116.5356" y2="70.6094" gradientTransform="matrix(-50.9457 -50.945 50.9457 -50.9454 -9521.1602 -2322.7625)">
							<stop  offset="0" style="stop-color:#231F20"/>
							<stop  offset="0.4956" style="stop-color:#FFFFFF"/>
							<stop  offset="1" style="stop-color:#231F20"/>
						</linearGradient>
						<polygon clip-path="url(#SVGID_25_)" mask="url(#SVGID_23_)" fill="url(#SVGID_26_)" points="41.29,26.276 22.522,7.508 
							3.753,26.276 22.522,45.044 						"/>
					</g>
				</g>
			</g>
		</mask>
		<g clip-path="url(#SVGID_4_)">
			<g>
				<defs>
					<rect id="SVGID_27_" x="15.015" y="15.015" width="15.015" height="22.522"/>
				</defs>
				<clipPath id="SVGID_28_">
					<use xlink:href="#SVGID_27_"  overflow="visible"/>
				</clipPath>
				<g clip-path="url(#SVGID_28_)">
					<defs>
						<polygon id="SVGID_29_" points="15.015,15.507 15.015,15.015 30.029,37.537 29.608,37.396 						"/>
					</defs>
					<clipPath id="SVGID_30_">
						<use xlink:href="#SVGID_29_"  overflow="visible"/>
					</clipPath>
					
						<linearGradient id="SVGID_31_" gradientUnits="userSpaceOnUse" x1="-116.9043" y1="70.6094" x2="-116.5356" y2="70.6094" gradientTransform="matrix(-50.9457 -50.945 50.9457 -50.9454 -9521.1602 -2322.7625)">
						<stop  offset="0" style="stop-color:#FFFFFF"/>
						<stop  offset="0.4956" style="stop-color:#FFFFFF"/>
						<stop  offset="1" style="stop-color:#FFFFFF"/>
					</linearGradient>
					<polygon clip-path="url(#SVGID_30_)" fill="url(#SVGID_31_)" points="41.29,26.276 22.522,7.508 3.753,26.276 22.522,45.044 
											"/>
				</g>
			</g>
		</g>
		<defs>
			<filter id="Adobe_OpacityMaskFilter_6_" filterUnits="userSpaceOnUse" x="-18.769" y="-7.507" width="52.552" height="52.551">
				<feFlood  style="flood-color:white;flood-opacity:1" result="back"/>
				<feBlend  in="SourceGraphic" in2="back" mode="normal"/>
			</filter>
		</defs>
		<mask maskUnits="userSpaceOnUse" x="-18.769" y="-7.507" width="52.552" height="52.551" id="SVGID_32_">
			<g filter="url(#Adobe_OpacityMaskFilter_6_)">
				<g enable-background="new    ">
					<g>
						<defs>
							<polygon id="SVGID_33_" points="15.29,0.688 15.014,0 0,37.537 0.634,37.325 							"/>
						</defs>
						<clipPath id="SVGID_34_" clip-path="url(#SVGID_4_)">
							<use xlink:href="#SVGID_33_"  overflow="visible"/>
						</clipPath>
						<defs>
							
								<filter id="Adobe_OpacityMaskFilter_7_" filterUnits="userSpaceOnUse" x="-18.769" y="-7.644" width="52.826" height="52.826">
								<feFlood  style="flood-color:white;flood-opacity:1" result="back"/>
								<feBlend  in="SourceGraphic" in2="back" mode="normal"/>
							</filter>
						</defs>
						<mask maskUnits="userSpaceOnUse" x="-18.769" y="-7.644" width="52.826" height="52.826" id="SVGID_32_">
							<g filter="url(#Adobe_OpacityMaskFilter_7_)">
								<g enable-background="new    ">
								</g>
							</g>
						</mask>
						
							<linearGradient id="SVGID_35_" gradientUnits="userSpaceOnUse" x1="-115.5386" y1="68.9902" x2="-115.1703" y2="68.9902" gradientTransform="matrix(71.3231 -71.3223 -71.3232 -71.3228 13155.666 -3287.8906)">
							<stop  offset="0" style="stop-color:#231F20"/>
							<stop  offset="0.4956" style="stop-color:#FFFFFF"/>
							<stop  offset="1" style="stop-color:#231F20"/>
						</linearGradient>
						<polygon clip-path="url(#SVGID_34_)" mask="url(#SVGID_32_)" fill="url(#SVGID_35_)" points="-18.769,18.769 7.645,-7.644 
							34.058,18.769 7.645,45.182 						"/>
					</g>
				</g>
			</g>
		</mask>
		<g clip-path="url(#SVGID_4_)">
			<g>
				<defs>
					<rect id="SVGID_36_" width="15.015" height="37.537"/>
				</defs>
				<clipPath id="SVGID_37_">
					<use xlink:href="#SVGID_36_"  overflow="visible"/>
				</clipPath>
				<g clip-path="url(#SVGID_37_)">
					<defs>
						<polygon id="SVGID_38_" points="15.015,1.375 15.014,0 0,37.537 0.635,37.325 						"/>
					</defs>
					<clipPath id="SVGID_39_">
						<use xlink:href="#SVGID_38_"  overflow="visible"/>
					</clipPath>
					
						<linearGradient id="SVGID_40_" gradientUnits="userSpaceOnUse" x1="-115.5386" y1="68.9922" x2="-115.1704" y2="68.9922" gradientTransform="matrix(71.3231 -71.3223 -71.3232 -71.3228 13155.666 -3287.8906)">
						<stop  offset="0" style="stop-color:#FFFFFF"/>
						<stop  offset="0.4956" style="stop-color:#FFFFFF"/>
						<stop  offset="1" style="stop-color:#FFFFFF"/>
					</linearGradient>
					<polygon clip-path="url(#SVGID_39_)" fill="url(#SVGID_40_)" points="-18.769,18.769 7.507,-7.507 33.784,18.769 7.507,45.044 
											"/>
				</g>
			</g>
		</g>
		<defs>
			<filter id="Adobe_OpacityMaskFilter_8_" filterUnits="userSpaceOnUse" x="-3.754" y="-7.507" width="52.552" height="52.551">
				<feFlood  style="flood-color:white;flood-opacity:1" result="back"/>
				<feBlend  in="SourceGraphic" in2="back" mode="normal"/>
			</filter>
		</defs>
		<mask maskUnits="userSpaceOnUse" x="-3.754" y="-7.507" width="52.552" height="52.551" id="SVGID_41_">
			<g filter="url(#Adobe_OpacityMaskFilter_8_)">
				<g enable-background="new    ">
					<g>
						<defs>
							<polygon id="SVGID_42_" points="14.74,0.688 15.015,0 30.029,37.537 29.395,37.325 							"/>
						</defs>
						<clipPath id="SVGID_43_" clip-path="url(#SVGID_4_)">
							<use xlink:href="#SVGID_42_"  overflow="visible"/>
						</clipPath>
						<defs>
							
								<filter id="Adobe_OpacityMaskFilter_9_" filterUnits="userSpaceOnUse" x="-4.028" y="-7.644" width="52.826" height="52.826">
								<feFlood  style="flood-color:white;flood-opacity:1" result="back"/>
								<feBlend  in="SourceGraphic" in2="back" mode="normal"/>
							</filter>
						</defs>
						<mask maskUnits="userSpaceOnUse" x="-4.028" y="-7.644" width="52.826" height="52.826" id="SVGID_41_">
							<g filter="url(#Adobe_OpacityMaskFilter_9_)">
								<g enable-background="new    ">
								</g>
							</g>
						</mask>
						
							<linearGradient id="SVGID_44_" gradientUnits="userSpaceOnUse" x1="-116.8125" y1="70.2637" x2="-116.4439" y2="70.2637" gradientTransform="matrix(-71.3231 -71.3223 71.3232 -71.3228 -13307.3164 -3287.8906)">
							<stop  offset="0" style="stop-color:#231F20"/>
							<stop  offset="0.4956" style="stop-color:#FFFFFF"/>
							<stop  offset="1" style="stop-color:#231F20"/>
						</linearGradient>
						<polygon clip-path="url(#SVGID_43_)" mask="url(#SVGID_41_)" fill="url(#SVGID_44_)" points="48.798,18.769 22.385,-7.644 
							-4.028,18.769 22.385,45.182 						"/>
					</g>
				</g>
			</g>
		</mask>
		<g clip-path="url(#SVGID_4_)">
			<g>
				<defs>
					<rect id="SVGID_45_" x="15.015" width="15.015" height="37.537"/>
				</defs>
				<clipPath id="SVGID_46_">
					<use xlink:href="#SVGID_45_"  overflow="visible"/>
				</clipPath>
				<g clip-path="url(#SVGID_46_)">
					<defs>
						<polygon id="SVGID_47_" points="15.015,1.375 15.015,0 30.029,37.537 29.395,37.325 						"/>
					</defs>
					<clipPath id="SVGID_48_">
						<use xlink:href="#SVGID_47_"  overflow="visible"/>
					</clipPath>
					
						<linearGradient id="SVGID_49_" gradientUnits="userSpaceOnUse" x1="-116.8125" y1="70.2656" x2="-116.4438" y2="70.2656" gradientTransform="matrix(-71.3231 -71.3223 71.3232 -71.3228 -13307.3164 -3287.8906)">
						<stop  offset="0" style="stop-color:#FFFFFF"/>
						<stop  offset="0.4956" style="stop-color:#FFFFFF"/>
						<stop  offset="1" style="stop-color:#FFFFFF"/>
					</linearGradient>
					<polygon clip-path="url(#SVGID_48_)" fill="url(#SVGID_49_)" points="48.798,18.769 22.522,-7.507 -3.754,18.769 
						22.522,45.044 					"/>
				</g>
			</g>
		</g>
	</g>
</g>
</svg>
