<?xml version="1.0" encoding="utf-8"?>
<!-- Generator: Adobe Illustrator 15.0.0, SVG Export Plug-In . SVG Version: 6.00 Build 0)  -->
<!DOCTYPE svg PUBLIC "-//W3C//DTD SVG 1.1//EN" "http://www.w3.org/Graphics/SVG/1.1/DTD/svg11.dtd">
<svg version="1.1" id="Layer_1" xmlns="http://www.w3.org/2000/svg" xmlns:xlink="http://www.w3.org/1999/xlink" x="0px" y="0px"
	 width="127px" height="127px" viewBox="0 0 127 127" enable-background="new 0 0 127 127" xml:space="preserve">
<g>
	<path fill="#FFFFFF" d="M63.5,0C28.486,0,0,28.486,0,63.5C0,98.515,28.486,127,63.5,127c35.015,0,63.5-28.485,63.5-63.5
		C127,28.486,98.515,0,63.5,0z M63.5,123.956c-33.335,0-60.455-27.121-60.455-60.456S30.165,3.045,63.5,3.045
		s60.456,27.12,60.456,60.455S96.835,123.956,63.5,123.956z"/>
</g>
<g>
	<path fill-rule="evenodd" clip-rule="evenodd" fill="#FFFFFF" d="M83.139,68.689c-6.649,0-12.04,5.45-12.04,12.177
		c0,6.726,5.391,12.179,12.04,12.179S95.18,87.592,95.18,80.866C95.18,74.14,89.788,68.689,83.139,68.689z M90.51,79.905
		l-7.708,6.496c-0.258,0.218-0.57,0.347-0.896,0.433c-0.197,0.066-0.4,0.104-0.607,0.1c-0.57,0.008-1.143-0.165-1.579-0.532
		c-0.309-0.262-0.466-0.586-0.551-0.922l-1.574-1.592c-0.691-0.699-0.691-1.832,0-2.533c0.691-0.698,1.812-0.698,2.503,0
		l1.148,1.162l6.182-5.209c0.852-0.718,2.231-0.718,3.083,0C91.36,78.024,91.36,79.188,90.51,79.905z"/>
	<path fill-rule="evenodd" clip-rule="evenodd" fill="#FFFFFF" d="M67.063,80.866c0-8.98,7.197-16.259,16.076-16.259
		c2.134,0,4.165,0.43,6.028,1.193V42.25c0-2.245-1.799-4.065-4.019-4.065H75.101v5.082c0,1.685-0.749,3.048-1.674,3.048H56.68
		c-0.925,0-1.674-1.364-1.674-3.048v-5.082H44.957c-2.22,0-4.019,1.82-4.019,4.065v44.714c0,2.245,1.799,4.065,4.019,4.065h25.644
		C68.392,88.244,67.063,84.714,67.063,80.866z"/>
	<path fill-rule="evenodd" clip-rule="evenodd" fill="#FFFFFF" d="M71.081,36.151H70.96c0.08-0.329,0.121-0.668,0.121-1.016
		c0-2.807-2.698-5.081-6.028-5.081c-3.329,0-6.029,2.274-6.029,5.081c0,0.348,0.043,0.687,0.123,1.016h-0.123
		c-1.108,0-2.009,0.911-2.009,2.033v4.065c0,1.122,0.9,2.032,2.009,2.032h12.058c1.11,0,2.011-0.91,2.011-2.032v-4.065
		C73.092,37.062,72.191,36.151,71.081,36.151z M67.063,38.184h-4.019v-4.065h4.019V38.184z"/>
</g>
</svg>
