<?xml version="1.0" encoding="utf-8"?>
<!-- Generator: Adobe Illustrator 15.0.0, SVG Export Plug-In . SVG Version: 6.00 Build 0)  -->
<!DOCTYPE svg PUBLIC "-//W3C//DTD SVG 1.1//EN" "http://www.w3.org/Graphics/SVG/1.1/DTD/svg11.dtd">
<svg version="1.1" id="Layer_1" xmlns="http://www.w3.org/2000/svg" xmlns:xlink="http://www.w3.org/1999/xlink" x="0px" y="0px"
	 width="127px" height="127px" viewBox="0 0 127 127" enable-background="new 0 0 127 127" xml:space="preserve">
<g>
	<path fill="#FFFFFF" d="M63.5,0C28.486,0,0,28.486,0,63.5C0,98.515,28.486,127,63.5,127c35.015,0,63.5-28.485,63.5-63.5
		C127,28.486,98.515,0,63.5,0z M63.5,123.956c-33.335,0-60.455-27.121-60.455-60.456S30.165,3.045,63.5,3.045
		s60.456,27.12,60.456,60.455S96.835,123.956,63.5,123.956z"/>
	<path fill="#FFFFFF" d="M89.849,82.465h-50.75c-1.166,0-2.113,0.954-2.113,2.131c0,1.176,0.947,2.13,2.113,2.13h14.804
		l-4.229,10.652h6.343l4.229-10.652h8.459l4.229,10.652h6.344l-4.229-10.652h14.801c1.169,0,2.116-0.954,2.116-2.13
		C91.965,83.419,91.018,82.465,89.849,82.465z"/>
	<path fill="#FFFFFF" d="M70.818,33.465H66.59v-2.13c0-1.177-0.947-2.13-2.114-2.13c-1.169,0-2.116,0.954-2.116,2.13v2.13h-4.229
		v4.261h12.688V33.465z"/>
	<path fill="#FFFFFF" d="M87.735,39.856H43.329c-2.336,0-4.23,1.907-4.23,4.261v31.955c0,2.354,1.895,4.263,4.23,4.263h44.406
		c2.335,0,4.229-1.908,4.229-4.263V44.118C91.965,41.764,90.07,39.856,87.735,39.856z M85.897,61.778l-4.245-4.276L70.364,68.875
		l0.075,0.076l-2.991,3.013l-9.506-9.579L46.319,74.094l-2.99-3.013l14.952-15.064l2.991,3.013l-0.341,0.343l6.441,6.489
		l11.289-11.373l-4.657-4.691l13.422-1.542L85.897,61.778z"/>
</g>
</svg>
