<?xml version="1.0" encoding="utf-8"?>
<!-- Generator: Adobe Illustrator 15.0.0, SVG Export Plug-In . SVG Version: 6.00 Build 0)  -->
<!DOCTYPE svg PUBLIC "-//W3C//DTD SVG 1.1//EN" "http://www.w3.org/Graphics/SVG/1.1/DTD/svg11.dtd">
<svg version="1.1" id="Layer_1" xmlns="http://www.w3.org/2000/svg" xmlns:xlink="http://www.w3.org/1999/xlink" x="0px" y="0px"
	 width="127px" height="127px" viewBox="0 0 127 127" enable-background="new 0 0 127 127" xml:space="preserve">
<g>
	<path fill="#FFFFFF" d="M63.5,0C28.486,0,0,28.486,0,63.5C0,98.515,28.486,127,63.5,127c35.015,0,63.5-28.485,63.5-63.5
		C127,28.486,98.515,0,63.5,0z M63.5,123.956c-33.335,0-60.455-27.121-60.455-60.456S30.165,3.045,63.5,3.045
		s60.456,27.12,60.456,60.455S96.835,123.956,63.5,123.956z"/>
	<path fill="#FFFFFF" d="M70.786,93.2v-5.945H54.934V93.2c0,0-3.964,1.981-5.945,3.962c-1.98,1.981,1.981,1.981,1.981,1.981h23.778
		c0,0,3.963,0,1.981-1.981C74.748,95.182,70.786,93.2,70.786,93.2z"/>
	<path fill="#FFFFFF" d="M90.601,35.736H35.117c-2.188,0-3.962,1.774-3.962,3.962v41.613c0,2.188,1.773,3.962,3.962,3.962h55.483
		c2.188,0,3.963-1.774,3.963-3.962V39.698C94.563,37.51,92.789,35.736,90.601,35.736z M90.601,71.403
		c0,2.188-1.774,3.962-3.964,3.962H39.081c-2.188,0-3.964-1.774-3.964-3.962V43.662c0-2.188,1.775-3.963,3.964-3.963h47.556
		c2.189,0,3.964,1.775,3.964,3.963V71.403z"/>
	<path fill="#FFFFFF" d="M47.998,68.431h29.723V47.625H47.998V68.431z M69.229,53.858h4.246V66.35h-4.246V53.858z M60.736,50.746
		h4.245V66.35h-4.245V50.746z M52.244,59.148h4.246v7.202h-4.246V59.148z"/>
</g>
</svg>
